<svg xmlns="http://www.w3.org/2000/svg" x="0px" y="0px" width="100" height="100" viewBox="0,0,256,256">
<g fill="#ffffff" fill-rule="nonzero" stroke="none" stroke-width="1" stroke-linecap="butt" stroke-linejoin="miter" stroke-miterlimit="10" stroke-dasharray="" stroke-dashoffset="0" font-family="none" font-weight="none" font-size="none" text-anchor="none" style="mix-blend-mode: normal"><g transform="scale(8,8)"><path d="M17,3c-2.21094,0 -4,1.78906 -4,4h-6v5c-2.21094,0 -4,1.78906 -4,4c0,2.21094 1.78906,4 4,4v5h6c0,2.21094 1.78906,4 4,4c2.21094,0 4,-1.78906 4,-4h6v-7h-2c-1.19141,0 -2,-0.80859 -2,-2c0,-1.19141 0.80859,-2 2,-2h2v-7h-6c0,-2.21094 -1.78906,-4 -4,-4zM17,5c1.19141,0 2,0.80859 2,2v2h6v3c-2.21094,0 -4,1.78906 -4,4c0,2.21094 1.78906,4 4,4v3h-6v2c0,1.19141 -0.80859,2 -2,2c-1.19141,0 -2,-0.80859 -2,-2v-2h-6v-5h-2c-1.19141,0 -2,-0.80859 -2,-2c0,-1.19141 0.80859,-2 2,-2h2v-5h6v-2c0,-1.19141 0.80859,-2 2,-2z"></path></g></g>
</svg>

